<svg width="240" height="42" viewBox="0 0 240 42" fill="none" xmlns="http://www.w3.org/2000/svg">
<g clip-path="url(#clip0)">
<rect width="240" height="42" fill="white"/>
<path d="M22 1L26.9393 16.2016H42.9232L29.992 25.5967L34.9313 40.7984L22 31.4033L9.06872 40.7984L14.008 25.5967L1.07676 16.2016H17.0607L22 1Z" fill="#F6E34B"/>
<path d="M71 1L75.9393 16.2016H91.9232L78.992 25.5967L83.9313 40.7984L71 31.4033L58.0687 40.7984L63.008 25.5967L50.0768 16.2016H66.0607L71 1Z" fill="#F6E34B"/>
<path d="M120 1L124.939 16.2016H140.923L127.992 25.5967L132.931 40.7984L120 31.4033L107.069 40.7984L112.008 25.5967L99.0768 16.2016H115.061L120 1Z" fill="#F6E34B"/>
<path d="M169 1L173.939 16.2016H189.923L176.992 25.5967L181.931 40.7984L169 31.4033L156.069 40.7984L161.008 25.5967L148.077 16.2016H164.061L169 1Z" fill="#F6E34B"/>
<path d="M218 1L222.939 16.2016H238.923L225.992 25.5967L230.931 40.7984L218 31.4033L205.069 40.7984L210.008 25.5967L197.077 16.2016H213.061L218 1Z" fill="#F6E34B"/>
</g>
<defs>
<clipPath id="clip0">
<rect width="240" height="42" fill="white"/>
</clipPath>
</defs>
</svg>
