<svg id="Layer_1" data-name="Layer 1" xmlns="http://www.w3.org/2000/svg" viewBox="0 0 397 397"><defs><style>.cls-1{fill-rule:evenodd;}</style></defs><title>Artboard 2</title><path d="M50.38,165.5a6,6,0,1,0-11.88-1.27l-8.64,80.92a6,6,0,1,0,11.88,1.27Z"/><path d="M327.24,196.54v66.27c0,14.29-15.39,26.22-40.28,34-22.51,7-53.44,11.33-87.46,11.33s-64.95-4.33-87.46-11.33c-24.89-7.74-40.28-19.67-40.28-34v-64.7l111.8,42.15v0l5.92,2.39a10.84,10.84,0,0,0,8,0Z"/><path class="cls-1" d="M42,187A13.7,13.7,0,0,0,27,199.1l-6.5,42a13.61,13.61,0,0,0,3,10C25.75,254,31,256,34.63,256.36s9.18-.47,12-2.76a13.61,13.61,0,0,0,5-9.17L54.18,202A13.72,13.72,0,0,0,42,187Z"/><path d="M195.78,89.28l183.86,65.24h0a7.63,7.63,0,0,1,0,13.59h0L195.78,233.35a5.38,5.38,0,0,1-3.91,0v0L19.7,168.22a6.27,6.27,0,0,1-4.16-4.2,10.63,10.63,0,0,1,0-5.41,6.27,6.27,0,0,1,4.16-4.2L191.88,89.27v0A5.38,5.38,0,0,1,195.78,89.28Z"/></svg>