<svg width="24" height="24" viewBox="0 0 24 24" fill="none" xmlns="http://www.w3.org/2000/svg">
<path fill-rule="evenodd" clip-rule="evenodd" d="M11.75 7C11.3358 7 11 7.33579 11 7.75V10.9286H8.08337C7.66916 10.9286 7.33337 11.2644 7.33337 11.6786V12.3214C7.33337 12.7356 7.66916 13.0714 8.08337 13.0714H11V16.25C11 16.6642 11.3358 17 11.75 17H12.25C12.6642 17 13 16.6642 13 16.25V13.0714H15.9167C16.3309 13.0714 16.6667 12.7356 16.6667 12.3214V11.6786C16.6667 11.2644 16.3309 10.9286 15.9167 10.9286H13V7.75C13 7.33579 12.6642 7 12.25 7H11.75Z" fill="black"/>
<rect x="4" y="4" width="16" height="16" rx="3" stroke="black"/>
</svg>
