<svg width="16" height="16" viewBox="0 0 16 16" fill="none" xmlns="http://www.w3.org/2000/svg">
<path fill-rule="evenodd" clip-rule="evenodd" d="M0 3C0 1.34315 1.34315 0 3 0H13C14.6569 0 16 1.34315 16 3V13C16 14.6569 14.6569 16 13 16H3C1.34315 16 0 14.6569 0 13V3ZM7 3.75C7 3.33579 7.33579 3 7.75 3H8.25C8.66421 3 9 3.33579 9 3.75V6.92857H11.9167C12.3309 6.92857 12.6667 7.26436 12.6667 7.67857V8.32143C12.6667 8.73564 12.3309 9.07143 11.9167 9.07143H9V12.25C9 12.6642 8.66421 13 8.25 13H7.75C7.33579 13 7 12.6642 7 12.25V9.07143H4.08333C3.66912 9.07143 3.33333 8.73564 3.33333 8.32143V7.67857C3.33333 7.26436 3.66912 6.92857 4.08333 6.92857H7V3.75Z" fill="#999999"/>
</svg>
