<svg width="105" height="105" viewBox="0 0 105 105" fill="none" xmlns="http://www.w3.org/2000/svg">
<circle cx="52.5" cy="52.5" r="52.5" fill="#7B7B7B"/>
<path d="M87 37.75V75.6786C87 79.1685 84.1445 82 80.625 82H25.375C21.8555 82 19 79.1685 19 75.6786V37.75C19 34.26 21.8555 31.4286 25.375 31.4286H37.0625L38.6961 27.0958C39.6258 24.633 42.0031 23 44.6594 23H61.3273C63.9836 23 66.3609 24.633 67.2906 27.0958L68.9375 31.4286H80.625C84.1445 31.4286 87 34.26 87 37.75ZM68.9375 56.7143C68.9375 47.996 61.7922 40.9107 53 40.9107C44.2078 40.9107 37.0625 47.996 37.0625 56.7143C37.0625 65.4326 44.2078 72.5179 53 72.5179C61.7922 72.5179 68.9375 65.4326 68.9375 56.7143ZM64.6875 56.7143C64.6875 63.1016 59.4414 68.3036 53 68.3036C46.5586 68.3036 41.3125 63.1016 41.3125 56.7143C41.3125 50.327 46.5586 45.125 53 45.125C59.4414 45.125 64.6875 50.327 64.6875 56.7143Z" fill="white"/>
</svg>
