<svg width="65" height="56" viewBox="0 0 65 56" fill="none" xmlns="http://www.w3.org/2000/svg">
<path d="M33 0C15.325 0 0.999995 11.6375 0.999995 26C0.999995 31.95 3.4875 37.4 7.6125 41.7875C5.75 46.7125 1.875 50.8875 1.8125 50.9375C0.987495 51.8125 0.762495 53.0875 1.2375 54.1875C1.7125 55.2875 2.8 56 4 56C11.6875 56 17.75 52.7875 21.3875 50.2125C25 51.35 28.9 52 33 52C50.675 52 65 40.3625 65 26C65 11.6375 50.675 0 33 0ZM33 46C29.6625 46 26.3625 45.4875 23.2 44.4875L20.3625 43.5875L17.925 45.3125C16.1375 46.575 13.6875 47.9875 10.7375 48.9375C11.65 47.425 12.5375 45.725 13.225 43.9125L14.55 40.4L11.975 37.675C9.7125 35.2625 7 31.275 7 26C7 14.975 18.6625 6 33 6C47.3375 6 59 14.975 59 26C59 37.025 47.3375 46 33 46Z" fill="black"/>
<line x1="21.5" y1="26.5" x2="45.5" y2="26.5" stroke="black" stroke-width="5" stroke-linecap="round" stroke-linejoin="round"/>
<line x1="21.5" y1="18.5" x2="45.5" y2="18.5" stroke="black" stroke-width="5" stroke-linecap="round" stroke-linejoin="round"/>
<line x1="21.5" y1="34.5" x2="45.5" y2="34.5" stroke="black" stroke-width="5" stroke-linecap="round" stroke-linejoin="round"/>
</svg>
