<svg width="63" height="63" viewBox="0 0 63 63" fill="none" xmlns="http://www.w3.org/2000/svg">
<path d="M62.9844 31.5C62.9844 48.8884 48.8884 62.9844 31.5 62.9844C14.1116 62.9844 0.015625 48.8884 0.015625 31.5C0.015625 14.1116 14.1116 0.015625 31.5 0.015625C48.8884 0.015625 62.9844 14.1116 62.9844 31.5ZM27.8582 48.1707L51.2176 24.8113C52.0108 24.0181 52.0108 22.732 51.2176 21.9388L48.345 19.0662C47.5518 18.2729 46.2657 18.2729 45.4723 19.0662L26.4219 38.1165L17.5277 29.2223C16.7345 28.4291 15.4483 28.4291 14.655 29.2223L11.7824 32.0949C10.9892 32.8881 10.9892 34.1743 11.7824 34.9675L24.9855 48.1706C25.7789 48.9639 27.0649 48.9639 27.8582 48.1707V48.1707Z" fill="#6FB96D"/>
</svg>
