<svg width="84" height="84" viewBox="0 0 84 84" fill="none" xmlns="http://www.w3.org/2000/svg">
<circle cx="42" cy="42" r="42" fill="#BBBBBB"/>
<path d="M20.0649 63.4999L16.5649 59.4999C17.7316 58.8333 20.8649 56.6999 24.0649 53.4999C27.2649 50.2999 28.3983 47.1666 28.5649 45.9999C24.0649 45.5 21.4957 44.0835 19.0649 41.9999C15.565 39 14.065 29.5 20.0649 24C25.8223 18.7224 33.5358 20.4119 37.0649 23.4999C41.0649 27 44.5233 36 38.5649 47C34.5 54.5045 28.5649 59.4999 20.0649 63.4999Z" fill="white"/>
<path d="M48.1299 63.4999L44.6299 59.4999C45.7965 58.8333 48.9299 56.6999 52.1299 53.4999C55.3299 50.2999 56.4632 47.1666 56.6299 45.9999C52.1299 45.5 49.5607 44.0835 47.1299 41.9999C43.6299 39 42.1299 29.5 48.1299 24C53.8872 18.7224 61.6007 20.4119 65.1299 23.4999C69.1299 27 72.5882 36 66.6299 47C62.5649 54.5045 56.6299 59.4999 48.1299 63.4999Z" fill="white"/>
</svg>
