<svg width="105" height="105" viewBox="0 0 105 105" fill="none" xmlns="http://www.w3.org/2000/svg">
<circle cx="52.5" cy="52.5" r="52.5" fill="white"/>
<path d="M86.863 46.2044L32.1586 23.5053C29.854 22.5489 27.2504 22.9696 25.3639 24.6027C23.4775 26.236 22.6885 28.7527 23.3051 31.1704L28.1743 50.2651H52.0144C53.1114 50.2651 54.0009 51.1545 54.0009 52.2516C54.0009 53.3487 53.1116 54.2382 52.0144 54.2382H28.1743L23.3051 73.3328C22.6885 75.7506 23.4774 78.2673 25.3639 79.9005C27.2542 81.5369 29.8581 81.9524 32.1587 80.9979L86.8631 58.2989C89.3538 57.2654 90.9009 54.9482 90.9009 52.2516C90.9009 49.5551 89.3538 47.2377 86.863 46.2044Z" fill="black"/>
</svg>
