<svg width="30" height="30" viewBox="0 0 30 30" fill="none" xmlns="http://www.w3.org/2000/svg">
<path fill-rule="evenodd" clip-rule="evenodd" d="M15.3432 3.19106L19.1071 7.01582C19.3653 7.27854 19.3653 7.70794 19.1071 7.97156C18.9822 8.09929 18.8164 8.16905 18.6407 8.16905C18.4641 8.16814 18.3002 8.09929 18.1752 7.97156L15.6448 5.40148V19.1025C15.6448 19.4757 15.3486 19.7783 14.9846 19.7783C14.6205 19.7783 14.3243 19.4757 14.3243 19.1025V5.4341L11.8247 7.97156C11.5748 8.22703 11.1409 8.22612 10.8928 7.97246C10.6338 7.70794 10.6338 7.27854 10.8928 7.01582L14.6567 3.19106C14.8741 2.97002 15.1277 2.97092 15.3432 3.19106M22.9245 12.7063V25.389C22.9245 26.2641 22.2145 26.9744 21.3396 26.9744H8.66035C7.78457 26.9744 7.07544 26.2641 7.07544 25.389V12.7063C7.07544 11.8302 7.78457 11.1209 8.66035 11.1209H12.0475V12.4798H9.26351C8.80525 12.4798 8.43393 12.8512 8.43393 13.3096V24.7857C8.43393 25.2432 8.80525 25.6155 9.26351 25.6155H20.7364C21.1947 25.6155 21.566 25.2432 21.566 24.7857V13.3096C21.566 12.8512 21.1947 12.4798 20.7364 12.4798H17.9434V11.1209H21.3396C22.2145 11.1209 22.9245 11.8302 22.9245 12.7063" fill="black"/>
</svg>
