<svg id="Layer_1" data-name="Layer 1" xmlns="http://www.w3.org/2000/svg" viewBox="0 0 270 56"><defs><style>.cls-1{fill:#fff;}</style></defs><title>YootyWhite</title><path class="cls-1" d="M31.27,54.7H18.67V32.36L.13,1.3H14.87l6,12.92Q25.4,24,25.4,24h.16q.48-1,4.52-9.74l6.1-13H50.75L31.27,31.88Z"/><path class="cls-1" d="M78.08,55.65H78q-12.59,0-20.23-7.69T50.12,28.55q0-12.35,8-20.27T78.88.35Q91.78.35,99.47,8t7.69,19.6q0,12.52-8,20.28T78.08,55.65Zm.48-9.83h.08a13.51,13.51,0,0,0,11-5q4.08-5,4.08-12.83a19.6,19.6,0,0,0-4.12-12.67,13.37,13.37,0,0,0-11-5.15,13.38,13.38,0,0,0-11,5.11q-4.08,5.1-4.08,12.87a19.11,19.11,0,0,0,4.16,12.63A13.42,13.42,0,0,0,78.56,45.82Z"/><path class="cls-1" d="M141.14,55.65h-.08q-12.6,0-20.24-7.69t-7.64-19.41q0-12.35,8-20.27T141.93.35q12.91,0,20.6,7.65t7.68,19.6q0,12.52-8,20.28T141.14,55.65Zm.47-9.83h.08a13.54,13.54,0,0,0,11.06-5q4.06-5,4.07-12.83a19.6,19.6,0,0,0-4.12-12.67,14.42,14.42,0,0,0-22.06,0q-4.08,5.1-4.08,12.87a19.16,19.16,0,0,0,4.16,12.63A13.45,13.45,0,0,0,141.61,45.82Z"/><path class="cls-1" d="M187.8,54.7V11.6H171.72V1.3h45V11.6H200.39V54.7Z"/><path class="cls-1" d="M250.38,54.7h-12.6V32.36L219.25,1.3H234l6,12.92Q244.52,24,244.52,24h.15q.48-1,4.52-9.74l6.1-13h14.58L250.38,31.88Z"/></svg>